<?xml version="1.0" standalone="no"?>
<!DOCTYPE svg PUBLIC "-//W3C//DTD SVG 20010904//EN"
 "http://www.w3.org/TR/2001/REC-SVG-20010904/DTD/svg10.dtd">
<svg version="1.0" xmlns="http://www.w3.org/2000/svg"
 width="437.000000pt" height="500.000000pt" viewBox="0 0 437.000000 500.000000"
 preserveAspectRatio="xMidYMid meet">

<g transform="translate(0.000000,500.000000) scale(0.100000,-0.100000)"
fill="#000000" stroke="none">
<path d="M2230 4472 c0 -13 -42 -34 -75 -37 -17 -1 -46 -6 -63 -10 -25 -5 -32
-3 -32 9 0 24 -17 19 -23 -6 -8 -31 2 -68 19 -68 8 0 14 -5 14 -11 0 -8 5 -8
15 1 12 10 15 10 15 0 0 -7 11 -1 25 14 25 27 32 29 75 27 18 -1 33 9 53 33
26 34 27 36 8 46 -23 12 -31 13 -31 2z"/>
<path d="M2580 4456 c19 -18 70 -30 70 -16 0 5 3 9 8 9 4 -1 16 0 27 1 17 2
17 3 -5 10 -38 12 -52 11 -44 -2 6 -10 4 -10 -7 0 -7 6 -24 12 -38 12 -22 0
-23 -2 -11 -14z"/>
<path d="M2492 4430 c0 -14 2 -19 5 -12 2 6 2 18 0 25 -3 6 -5 1 -5 -13z"/>
<path d="M2670 4425 c-7 -9 -10 -18 -7 -21 10 -11 37 5 37 21 0 19 -14 19 -30
0z"/>
<path d="M2713 4418 c-3 -28 14 -48 39 -48 10 0 17 -4 14 -9 -4 -5 3 -7 14 -4
24 6 37 -35 21 -65 -15 -27 -14 -32 4 -32 24 0 31 -31 11 -45 -9 -7 -16 -17
-15 -21 1 -5 -1 -17 -5 -26 -5 -10 -5 -26 -1 -35 6 -17 7 -16 18 2 6 11 17 40
24 65 l13 45 -5 -43 c-3 -24 -14 -61 -25 -82 -21 -41 -100 -116 -140 -132 -15
-6 -20 -12 -12 -15 15 -6 90 37 119 69 47 51 67 108 68 190 0 43 -2 78 -6 78
-4 0 -19 20 -33 44 -14 24 -41 54 -60 65 -41 26 -41 26 -43 -1z"/>
<path d="M2598 4413 c7 -3 16 -2 19 1 4 3 -2 6 -13 5 -11 0 -14 -3 -6 -6z"/>
<path d="M2284 4385 c3 -8 -2 -19 -12 -24 -9 -5 -13 -13 -9 -17 4 -4 13 1 21
11 7 11 18 15 25 10 9 -5 9 -1 -1 14 -15 24 -33 29 -24 6z"/>
<path d="M2610 4375 c-11 -29 -18 -30 -47 -10 -20 14 -21 13 -16 -5 3 -11 11
-20 19 -20 7 0 17 -7 22 -15 7 -14 11 -13 30 3 12 11 22 26 22 33 0 11 2 11
10 -1 5 -8 10 -10 10 -5 -1 12 -25 45 -34 45 -4 0 -11 -11 -16 -25z"/>
<path d="M2340 4369 c0 -16 19 -39 31 -39 4 0 10 8 13 17 4 10 4 14 0 10 -4
-4 -16 0 -26 10 -15 13 -18 14 -18 2z"/>
<path d="M2491 4364 c0 -11 3 -14 6 -6 3 7 2 16 -1 19 -3 4 -6 -2 -5 -13z"/>
<path d="M1584 4359 c-12 -6 -27 -22 -33 -35 -10 -23 -9 -24 29 -24 45 0 116
25 143 50 17 16 15 17 -50 18 -37 1 -78 -4 -89 -9z"/>
<path d="M2281 4326 c-13 -16 0 -30 37 -39 27 -6 30 13 4 36 -22 21 -26 21
-41 3z"/>
<path d="M2521 4297 c16 -35 5 -57 -26 -57 -24 0 -55 -20 -55 -34 0 -10 39
-46 49 -46 19 0 47 56 50 96 1 27 -3 45 -14 54 -15 12 -15 11 -4 -13z"/>
<path d="M2651 4306 c-17 -20 -10 -71 9 -71 11 0 15 12 17 43 1 44 -6 52 -26
28z"/>
<path d="M2210 4300 c-12 -8 -11 -10 8 -10 12 0 22 5 22 10 0 13 -11 13 -30 0z"/>
<path d="M2280 4254 c0 -22 2 -23 25 -12 14 6 25 14 25 18 0 4 -11 10 -25 12
-21 4 -25 1 -25 -18z"/>
<path d="M2014 4242 c-4 -9 -8 -29 -9 -44 -2 -21 1 -25 14 -21 12 5 13 3 4 -7
-6 -7 -9 -19 -6 -26 3 -8 -1 -14 -10 -14 -8 0 -20 -7 -27 -16 -11 -12 -11 -15
0 -12 10 2 14 -7 14 -28 0 -18 5 -31 13 -31 7 0 13 7 13 15 0 8 6 12 15 8 8
-3 15 -1 15 4 0 6 -5 10 -11 10 -5 0 -7 5 -3 11 5 8 10 6 16 -6 7 -12 5 -22
-10 -36 -11 -10 -23 -27 -27 -39 -4 -13 -15 -20 -30 -20 -26 0 -41 -15 -26
-24 5 -4 21 -2 35 4 19 7 26 6 27 -3 0 -6 5 -2 11 11 6 12 15 22 19 22 5 0 6
7 3 15 -3 8 6 25 20 40 14 14 23 26 21 26 -3 1 -9 2 -14 3 -5 0 -13 4 -17 8
-3 4 3 5 16 3 17 -3 20 -1 15 13 -4 9 -10 27 -12 40 -3 12 -12 22 -19 22 -11
0 -13 7 -8 27 6 22 4 25 -10 20 -14 -5 -16 -3 -11 12 8 25 -10 36 -21 13z"/>
<path d="M2714 4249 c-3 -6 -2 -15 4 -21 6 -6 11 -2 15 11 5 22 -7 29 -19 10z"/>
<path d="M2800 4234 c0 -8 5 -12 10 -9 6 4 8 11 5 16 -9 14 -15 11 -15 -7z"/>
<path d="M2410 4230 c0 -5 7 -10 15 -10 8 0 15 5 15 10 0 6 -7 10 -15 10 -8 0
-15 -4 -15 -10z"/>
<path d="M1914 4216 c-4 -11 -13 -15 -25 -11 -11 4 -19 2 -19 -4 0 -16 36 -13
50 4 7 9 10 18 7 22 -4 3 -9 -2 -13 -11z"/>
<path d="M2357 4219 c7 -7 15 -10 18 -7 3 3 -2 9 -12 12 -14 6 -15 5 -6 -5z"/>
<path d="M1542 4190 c0 -14 2 -19 5 -12 2 6 2 18 0 25 -3 6 -5 1 -5 -13z"/>
<path d="M1601 4165 c0 -31 2 -36 9 -23 6 10 7 25 1 40 -9 20 -10 18 -10 -17z"/>
<path d="M2372 4188 c2 -6 10 -14 16 -16 7 -2 10 2 6 12 -7 18 -28 22 -22 4z"/>
<path d="M2271 4168 c-1 -11 -6 -15 -16 -12 -18 7 -21 -26 -3 -44 31 -31 53
-2 33 43 -9 19 -14 24 -14 13z"/>
<path d="M2777 4109 c4 -13 8 -18 11 -10 2 7 -1 18 -6 23 -8 8 -9 4 -5 -13z"/>
<path d="M2630 4107 c0 -8 -7 -20 -15 -27 -12 -10 -15 -9 -15 6 0 16 -2 17
-10 4 -13 -21 -12 -30 4 -30 7 0 36 -10 65 -21 41 -18 54 -19 66 -9 26 21 17
38 -32 62 -27 12 -51 24 -55 26 -5 2 -8 -3 -8 -11z"/>
<path d="M2690 4105 c31 -18 83 -20 78 -2 -3 7 -25 13 -54 15 -47 2 -48 2 -24
-13z"/>
<path d="M2307 4054 c3 -7 9 -14 14 -14 14 0 10 17 -5 23 -10 4 -13 1 -9 -9z"/>
<path d="M2600 4023 c14 -10 28 -18 32 -18 3 0 9 -3 13 -7 8 -8 35 1 35 12 0
10 -56 30 -84 30 -19 0 -19 -1 4 -17z"/>
<path d="M1516 3974 c4 -27 14 -54 22 -60 10 -7 11 -13 4 -17 -12 -8 6 -77 21
-77 14 0 0 91 -17 104 -8 6 -13 28 -13 50 0 23 -5 42 -12 44 -10 3 -11 -8 -5
-44z"/>
<path d="M2180 4006 c0 -8 -5 -16 -12 -18 -8 -3 -7 -6 3 -10 10 -4 15 1 17 18
1 13 0 24 -3 24 -3 0 -5 -6 -5 -14z"/>
<path d="M1696 3903 c-11 -11 -6 -23 9 -23 8 0 15 4 15 9 0 13 -16 22 -24 14z"/>
<path d="M1878 3893 c-10 -2 -18 -11 -18 -18 0 -8 -12 -15 -27 -17 -28 -3 -28
-5 -15 -51 4 -15 0 -17 -20 -12 -20 5 -26 1 -41 -31 -19 -39 -49 -154 -40
-154 3 0 17 12 32 28 15 15 37 35 48 44 17 13 20 24 16 55 -4 39 -2 43 87 151
11 12 8 13 -22 5z"/>
<path d="M2110 3829 c0 -14 -5 -19 -14 -16 -22 9 -66 -55 -66 -95 0 -19 -5
-39 -11 -45 -12 -12 4 -53 21 -53 5 0 12 -9 15 -21 7 -20 8 -20 37 8 28 27 61
87 78 145 6 20 3 34 -16 62 -28 41 -44 46 -44 15z"/>
<path d="M1550 3773 c-14 -16 -32 -37 -40 -47 -14 -18 -14 -19 7 -8 12 7 25
17 28 22 3 6 15 10 26 10 20 0 22 4 10 33 -6 16 -9 15 -31 -10z"/>
<path d="M1735 3790 c-4 -6 -10 -8 -14 -6 -3 3 -7 -3 -8 -12 -1 -9 -4 -30 -7
-47 -4 -16 -3 -23 0 -15 4 8 15 32 26 53 16 33 19 53 3 27z"/>
<path d="M1670 3780 c0 -5 5 -10 10 -10 6 0 10 5 10 10 0 6 -4 10 -10 10 -5 0
-10 -4 -10 -10z"/>
<path d="M1837 3770 c-7 -29 20 -48 40 -27 9 8 13 23 10 31 -9 23 -44 20 -50
-4z"/>
<path d="M1915 3709 c-12 -18 3 -22 20 -5 14 14 14 16 1 16 -8 0 -18 -5 -21
-11z"/>
<path d="M1991 3697 c-13 -21 -12 -21 5 -5 10 10 16 20 13 22 -3 3 -11 -5 -18
-17z"/>
<path d="M1650 3690 c0 -5 5 -10 11 -10 5 0 7 5 4 10 -3 6 -8 10 -11 10 -2 0
-4 -4 -4 -10z"/>
<path d="M1869 3673 c-5 -14 -7 -34 -3 -42 5 -14 7 -14 11 -1 2 8 8 27 13 43
12 36 -7 36 -21 0z"/>
<path d="M1433 3648 c-50 -53 -116 -185 -137 -272 -7 -27 -6 -28 9 -16 28 23
75 97 75 117 0 11 16 33 35 50 30 27 34 36 29 62 -4 19 -2 37 6 46 21 25 6 37
-17 13z"/>
<path d="M1825 3640 c3 -5 8 -10 11 -10 2 0 4 5 4 10 0 6 -5 10 -11 10 -5 0
-7 -4 -4 -10z"/>
<path d="M1631 3624 c0 -11 3 -14 6 -6 3 7 2 16 -1 19 -3 4 -6 -2 -5 -13z"/>
<path d="M1920 3630 c0 -5 5 -10 10 -10 6 0 10 5 10 10 0 6 -4 10 -10 10 -5 0
-10 -4 -10 -10z"/>
<path d="M1857 3576 c-5 -15 -6 -31 -3 -34 8 -8 18 25 14 45 -3 13 -6 10 -11
-11z"/>
<path d="M2071 3564 c-12 -15 -21 -34 -21 -43 0 -12 3 -11 13 5 6 12 18 31 25
43 18 29 8 26 -17 -5z"/>
<path d="M1645 3569 c-4 -6 -5 -12 -2 -15 2 -3 7 2 10 11 7 17 1 20 -8 4z"/>
<path d="M1888 3549 c2 -17 8 -27 13 -22 9 9 1 53 -10 53 -4 0 -6 -14 -3 -31z"/>
<path d="M1833 3486 c4 -10 -2 -16 -16 -20 -19 -4 -18 -4 3 -3 25 2 44 37 20
37 -7 0 -10 -6 -7 -14z"/>
<path d="M1710 3450 c27 -21 40 -25 40 -12 0 9 -44 32 -58 32 -4 0 4 -9 18
-20z"/>
<path d="M1640 3440 c0 -5 -10 -10 -22 -10 -17 0 -19 -3 -9 -9 8 -5 10 -14 6
-22 -6 -11 -5 -12 6 -1 20 18 45 15 62 -10 l16 -23 0 23 c1 17 -6 24 -28 28
-20 4 -28 11 -24 20 3 8 2 14 -1 14 -3 0 -6 -4 -6 -10z"/>
<path d="M1550 3374 c0 -13 48 -59 55 -52 3 2 -9 17 -25 33 -17 16 -30 24 -30
19z"/>
<path d="M1367 3363 c-4 -3 -7 -11 -7 -17 0 -6 5 -5 12 2 6 6 9 14 7 17 -3 3
-9 2 -12 -2z"/>
<path d="M1397 3323 c-4 -3 -7 -11 -7 -17 0 -6 5 -5 12 2 6 6 9 14 7 17 -3 3
-9 2 -12 -2z"/>
<path d="M1332 3300 c0 -14 2 -19 5 -12 2 6 2 18 0 25 -3 6 -5 1 -5 -13z"/>
<path d="M1840 3270 c-26 -20 -66 -28 -55 -10 3 6 -1 7 -10 3 -9 -3 -13 -9 -8
-12 10 -7 33 -57 33 -71 0 -21 -18 -9 -30 19 -24 60 -72 -9 -49 -72 10 -28 9
-39 -4 -66 -9 -17 -11 -29 -6 -26 11 8 12 -6 0 -23 -6 -11 -10 -10 -15 4 -12
31 -25 1 -16 -36 4 -19 8 -27 9 -17 1 14 4 15 14 6 10 -10 7 -18 -21 -43 -30
-28 -32 -33 -19 -50 14 -19 16 -18 42 22 37 55 44 46 10 -11 -16 -29 -22 -48
-15 -52 5 -3 14 -4 19 -1 4 3 17 -1 27 -9 10 -8 27 -15 36 -15 21 0 40 33 32
55 -4 9 0 21 9 28 8 7 33 68 55 137 38 117 39 125 22 132 -23 9 -37 31 -22 36
16 5 15 33 0 30 -7 -2 -13 8 -13 24 -1 15 2 25 6 22 4 -2 10 0 14 6 11 17 -19
11 -45 -10z m-65 -190 c-3 -5 -2 -10 2 -10 5 0 10 -14 11 -31 2 -24 -1 -30
-14 -27 -10 2 -20 10 -22 18 -5 13 -3 13 11 1 10 -8 17 -9 17 -3 0 6 -4 13 -9
16 -5 4 -8 14 -6 24 5 23 4 22 11 22 3 0 2 -4 -1 -10z"/>
<path d="M1270 3255 c-10 -13 -11 -18 -1 -28 10 -9 15 -8 27 7 8 11 14 23 14
28 0 14 -27 9 -40 -7z"/>
<path d="M1472 3258 c-19 -19 -14 -33 18 -45 23 -8 32 -8 40 2 8 9 7 13 -2 11
-7 0 -13 4 -13 9 0 6 5 9 10 7 6 -1 1 5 -9 13 -24 18 -29 18 -44 3z"/>
<path d="M1339 3253 c0 -4 -3 -17 -6 -28 -3 -11 -6 -35 -7 -54 -1 -31 2 -35
33 -43 41 -11 61 -4 60 19 -1 17 -2 17 -6 1 -5 -21 -22 -23 -29 -4 -3 8 -13
12 -25 9 -27 -7 -27 42 1 57 11 6 20 15 20 20 0 11 -40 34 -41 23z"/>
<path d="M1420 3215 c-7 -9 -11 -18 -8 -20 3 -3 11 1 18 10 7 9 11 18 8 20 -3
3 -11 -1 -18 -10z"/>
<path d="M1261 3189 c-7 -12 -10 -23 -8 -26 3 -3 11 5 17 17 15 28 8 35 -9 9z"/>
<path d="M1550 3190 c0 -5 5 -10 11 -10 5 0 7 5 4 10 -3 6 -8 10 -11 10 -2 0
-4 -4 -4 -10z"/>
<path d="M1563 3155 c6 -16 34 -17 34 -1 0 8 -9 14 -19 13 -10 -1 -17 -6 -15
-12z"/>
<path d="M1442 3108 c-5 -7 -13 -23 -16 -35 -6 -17 -3 -23 8 -23 9 0 16 -4 16
-9 0 -5 9 -11 20 -14 11 -3 20 -10 20 -15 0 -6 -9 -8 -21 -5 -12 4 -25 0 -30
-8 -12 -19 -11 -29 1 -29 6 0 10 7 10 15 0 11 7 14 25 9 37 -9 33 23 -6 56
-28 23 -30 29 -20 48 13 24 9 29 -7 10z"/>
<path d="M1610 3064 c0 -8 5 -12 10 -9 6 4 8 11 5 16 -9 14 -15 11 -15 -7z"/>
<path d="M1236 3024 c-4 -9 -3 -46 0 -81 4 -36 8 -77 9 -92 4 -55 4 -54 20
-41 8 7 15 9 15 4 0 -5 6 -2 13 7 16 20 47 32 47 18 0 -7 13 -9 37 -4 50 9 59
16 39 27 -9 5 -14 13 -11 19 4 5 1 9 -5 9 -7 0 -9 -8 -5 -20 5 -15 3 -18 -9
-14 -9 3 -16 12 -16 20 0 8 -6 14 -12 14 -20 1 -58 37 -58 55 0 9 -4 13 -10
10 -5 -3 -10 -2 -10 4 0 5 5 11 12 13 8 3 8 12 1 33 -10 32 -47 44 -57 19z"/>
<path d="M1610 3031 c0 -10 26 -9 36 2 4 4 -2 7 -14 7 -12 0 -22 -4 -22 -9z"/>
<path d="M1530 3010 c-12 -7 -10 -9 7 -7 12 0 19 5 17 9 -6 10 -6 10 -24 -2z"/>
<path d="M1573 3006 c4 -10 7 -20 7 -22 0 -2 9 -4 20 -4 11 0 20 7 20 15 0 8
-4 15 -9 15 -5 0 -17 3 -27 7 -14 5 -16 3 -11 -11z"/>
<path d="M1397 2990 c-3 -11 -1 -20 4 -20 5 0 9 2 9 4 0 2 3 11 6 20 3 9 2 16
-4 16 -5 0 -12 -9 -15 -20z"/>
<path d="M1511 2983 c4 -20 -2 -32 -18 -36 -17 -4 -17 -5 0 -6 9 0 17 -6 17
-12 0 -11 -41 -2 -50 11 -11 17 -43 15 -45 -2 -4 -21 11 -24 18 -5 4 8 6 7 6
-3 1 -10 12 -15 34 -15 37 0 60 12 51 27 -4 6 1 6 14 -1 11 -6 25 -11 30 -11
17 0 22 31 8 45 -12 12 -16 12 -26 0 -14 -16 -35 -21 -25 -6 3 5 1 13 -5 16
-6 4 -10 3 -9 -2z"/>
<path d="M1485 2879 c-4 -6 -5 -12 -2 -15 2 -3 7 2 10 11 7 17 1 20 -8 4z"/>
<path d="M1332 2806 l-83 -21 6 -35 c8 -43 21 -60 46 -60 11 0 19 -5 19 -11 0
-14 52 -7 58 9 2 6 -4 12 -13 12 -25 0 -13 23 13 25 18 1 21 -2 16 -22 -7 -27
7 -30 31 -6 15 15 15 17 1 25 -22 12 -20 41 4 56 25 15 27 52 3 51 -10 -1 -55
-11 -101 -23z"/>
<path d="M1728 2773 c24 -5 31 -23 9 -23 -19 0 -14 -40 7 -52 10 -5 20 -7 23
-4 3 3 12 -2 19 -12 11 -16 13 -15 23 11 6 15 16 27 23 27 9 0 9 -3 -1 -9 -12
-8 -13 -16 -2 -50 11 -37 28 -51 44 -35 10 10 -15 54 -27 47 -6 -4 -6 0 1 9 7
8 9 18 5 23 -4 4 2 6 13 4 10 -2 22 -15 26 -29 4 -14 7 -19 8 -12 1 10 5 10
23 0 13 -7 28 -20 34 -28 24 -30 23 -2 -1 30 -14 19 -25 31 -25 27 0 -3 -11 4
-25 17 -26 24 -65 36 -116 36 -19 0 -29 5 -29 15 0 10 -9 15 -27 14 -24 -2
-25 -2 -5 -6z"/>
<path d="M1480 2735 c0 -22 2 -24 24 -13 21 9 23 13 11 24 -21 21 -35 17 -35
-11z"/>
<path d="M1569 2721 c-36 -21 -83 -44 -103 -51 -43 -14 -44 -17 -12 -30 14 -5
26 -19 28 -32 3 -20 8 -23 46 -20 46 4 53 -8 31 -51 -16 -29 -27 -36 -50 -30
-20 5 -23 14 -19 48 2 16 -1 17 -13 7 -22 -18 -63 -5 -76 25 -8 18 -15 22 -24
15 -6 -5 -32 -13 -57 -17 -55 -9 -87 -24 -52 -25 29 0 80 -29 84 -47 2 -10 8
-10 30 1 17 9 30 11 34 5 3 -5 10 -6 16 -3 7 4 8 2 4 -5 -4 -6 -16 -9 -27 -6
-16 5 -19 1 -19 -30 0 -47 21 -54 76 -25 36 20 41 27 32 40 -10 12 -10 13 2 3
8 -7 25 -13 39 -13 24 0 24 0 6 -20 -20 -22 -13 -35 20 -42 11 -2 19 -10 18
-16 -2 -7 8 -12 22 -12 18 0 26 -7 31 -25 3 -14 12 -25 20 -25 11 0 11 -6 3
-27 -5 -14 -8 -32 -5 -39 3 -7 -2 -15 -11 -18 -10 -4 -13 -2 -10 7 3 8 -1 14
-8 14 -8 0 -12 -9 -9 -24 2 -12 0 -23 -6 -23 -11 0 -6 62 7 83 4 6 1 7 -6 2
-14 -8 -61 31 -61 52 0 12 -7 15 -26 12 -4 0 -11 5 -15 13 -7 10 -9 9 -9 -5 0
-15 -3 -16 -20 -7 -16 9 -22 8 -26 -4 -3 -8 -3 -20 1 -26 4 -6 1 -18 -6 -26
-10 -13 -14 -12 -30 2 -11 10 -19 23 -19 30 0 18 -20 28 -32 16 -11 -11 17
-62 36 -62 6 0 24 -21 41 -45 30 -45 54 -54 67 -25 6 13 7 13 7 0 2 -22 111
-56 122 -38 7 10 9 10 9 1 0 -16 66 -18 75 -3 4 7 12 7 25 0 20 -11 45 10 38
32 -7 19 25 43 62 46 40 3 44 6 37 26 -4 10 -22 14 -71 12 -57 -2 -66 0 -66
16 0 21 32 40 54 32 9 -3 19 3 26 16 12 22 6 32 -24 43 -5 2 -5 11 1 21 7 13
6 27 -4 47 -21 42 -30 43 -61 11 -21 -23 -32 -28 -48 -22 -19 7 -21 15 -18 59
3 39 1 51 -10 51 -14 0 -32 -36 -28 -53 1 -5 -2 -6 -8 -2 -14 9 -12 24 5 41 8
9 15 33 15 55 0 35 -2 40 -19 34 -16 -5 -18 -2 -14 14 3 11 14 23 25 27 20 6
22 45 3 51 -5 1 -40 -15 -76 -36z m34 -6 c-3 -9 -8 -14 -10 -11 -3 3 -2 9 2
15 9 16 15 13 8 -4z m-8 -44 c3 -5 1 -12 -5 -16 -5 -3 -10 1 -10 9 0 18 6 21
15 7z m-61 -55 c-6 -16 -24 -23 -24 -8 0 10 22 33 27 28 2 -2 1 -11 -3 -20z
m-57 -101 c0 -11 -4 -12 -14 -4 -7 6 -13 13 -13 15 0 2 6 4 13 4 8 0 14 -7 14
-15z m153 -10 c0 -9 -9 -15 -21 -15 -18 0 -19 2 -9 15 7 8 16 15 21 15 5 0 9
-7 9 -15z"/>
<path d="M1698 2703 c5 -10 8 -37 7 -59 -1 -31 2 -39 10 -30 21 20 24 67 7 87
-21 24 -36 25 -24 2z"/>
<path d="M1740 2663 c0 -5 7 -18 15 -29 20 -26 20 -51 1 -35 -10 8 -16 9 -21
1 -3 -5 1 -10 9 -10 8 0 19 -7 24 -16 6 -11 11 -13 16 -5 4 6 16 11 26 11 10
0 22 4 25 10 9 15 -26 69 -44 68 -9 0 -24 3 -33 7 -10 4 -18 3 -18 -2z"/>
<path d="M1260 2640 c0 -5 5 -10 11 -10 5 0 7 5 4 10 -3 6 -8 10 -11 10 -2 0
-4 -4 -4 -10z"/>
<path d="M1290 2630 c0 -5 7 -7 15 -4 8 4 15 8 15 10 0 2 -7 4 -15 4 -8 0 -15
-4 -15 -10z"/>
<path d="M1952 2604 c-18 -19 -21 -70 -4 -66 6 1 12 -2 12 -7 0 -5 18 -13 39
-19 29 -7 38 -6 36 2 -2 6 -6 24 -9 39 -4 15 -11 25 -16 22 -6 -3 -10 -1 -10
5 0 6 -4 8 -10 5 -5 -3 -10 1 -10 9 0 22 -13 26 -28 10z"/>
<path d="M1990 2610 c0 -5 5 -10 11 -10 5 0 7 5 4 10 -3 6 -8 10 -11 10 -2 0
-4 -4 -4 -10z"/>
<path d="M1723 2559 c-14 -5 -21 -14 -17 -23 3 -8 1 -17 -5 -21 -13 -8 -14
-25 -2 -25 10 0 56 69 50 74 -2 2 -14 0 -26 -5z"/>
<path d="M1340 2440 c0 -5 10 -10 23 -10 18 0 19 2 7 10 -19 13 -30 13 -30 0z"/>
<path d="M2041 2414 c0 -11 3 -14 6 -6 3 7 2 16 -1 19 -3 4 -6 -2 -5 -13z"/>
<path d="M2034 2310 c3 -19 2 -29 -4 -25 -6 3 -10 15 -10 26 0 11 -5 17 -10
14 -6 -4 -7 -11 -4 -17 4 -6 -2 -6 -15 1 -32 17 -25 7 14 -23 l35 -27 9 23 c9
26 3 58 -11 58 -6 0 -8 -13 -4 -30z"/>
<path d="M1631 2304 c0 -11 3 -14 6 -6 3 7 2 16 -1 19 -3 4 -6 -2 -5 -13z"/>
<path d="M1842 2253 c2 -12 -3 -17 -12 -15 -9 1 -6 -6 9 -18 27 -23 37 -25 47
-8 5 7 2 9 -8 6 -8 -4 -21 -2 -29 3 -11 8 -10 9 5 7 10 -2 21 3 23 10 3 6 -1
12 -9 12 -10 0 -9 3 2 10 12 8 11 10 -8 10 -16 0 -22 -5 -20 -17z"/>
<path d="M2010 2241 c0 -5 5 -13 10 -16 6 -3 10 -2 10 4 0 5 -4 13 -10 16 -5
3 -10 2 -10 -4z"/>
<path d="M1802 2181 c-11 -7 -11 -9 1 -14 16 -6 27 0 27 15 0 10 -11 10 -28
-1z"/>
<path d="M1843 2164 c-20 -20 -26 -21 -58 -12 -19 6 -35 16 -35 22 0 6 -5 4
-10 -4 -9 -15 -15 -17 -58 -19 -33 -2 -49 -42 -29 -71 16 -23 23 -28 96 -68
l41 -22 0 21 c0 12 5 19 12 17 7 -3 18 1 25 8 15 14 17 28 4 20 -11 -7 -36 22
-27 31 10 10 59 -21 71 -44 6 -11 16 -18 22 -16 7 3 20 -1 30 -7 16 -10 14
-11 -8 -6 -20 4 -30 -1 -47 -23 l-21 -29 30 -11 c21 -7 29 -16 26 -25 -3 -8
-1 -17 6 -20 7 -2 4 -5 -6 -5 -11 -1 -21 8 -24 18 -3 12 -20 23 -48 30 -23 6
-51 14 -61 18 -17 6 -18 5 -4 -13 8 -10 -2 -4 -23 14 -39 33 -46 35 -87 22
l-25 -8 27 -1 c32 -1 78 -21 78 -33 0 -5 -8 -4 -19 1 -25 14 -57 -18 -38 -39
9 -10 9 -11 0 -6 -7 4 -13 2 -13 -4 0 -6 18 -19 39 -27 36 -14 39 -18 30 -40
-21 -56 6 -112 49 -99 12 4 25 -1 36 -13 15 -16 16 -23 5 -43 -7 -13 -13 -30
-14 -37 0 -8 -16 -24 -36 -34 -38 -20 -64 -60 -53 -79 4 -7 2 -8 -4 -4 -7 4
-12 1 -12 -8 0 -16 12 -21 23 -10 3 4 25 8 48 9 35 3 47 -1 71 -26 25 -24 37
-29 80 -29 l51 0 -39 35 c-33 29 -45 33 -74 29 -35 -4 -34 -4 9 14 24 10 40
21 35 24 -11 6 -104 23 -121 21 -7 0 -10 4 -7 9 4 6 20 7 38 3 17 -3 47 -8 66
-11 19 -2 42 -7 51 -10 18 -5 106 26 109 39 1 12 -68 57 -87 57 -13 0 -14 3
-5 12 8 8 18 9 34 1 13 -6 26 -10 30 -9 3 0 16 -11 28 -26 12 -16 26 -28 31
-28 23 0 156 69 162 83 3 9 -3 36 -13 60 -11 25 -32 89 -46 143 -15 59 -40
121 -60 153 l-34 55 -6 -33 c-6 -27 -10 -32 -28 -27 -64 18 -69 19 -62 7 4 -6
1 -14 -8 -17 -8 -3 -12 -12 -9 -20 4 -10 0 -12 -11 -8 -9 3 -16 11 -16 17 0 6
-7 18 -16 28 -14 16 -13 17 10 15 17 0 24 -6 21 -14 -3 -7 0 -10 5 -7 15 9 12
23 -11 46 -20 20 -21 20 -42 2 -17 -14 -19 -14 -9 -1 9 11 10 18 2 23 -5 3
-10 1 -10 -6 0 -19 -11 -4 -23 33 l-12 34 -22 -22z m-98 -84 c-3 -5 2 -10 12
-10 10 -1 29 -7 43 -15 l25 -14 -28 -1 c-34 0 -90 27 -82 40 4 6 13 10 21 10
8 0 12 -4 9 -10z m295 -40 c0 -5 -5 -10 -11 -10 -5 0 -7 5 -4 10 3 6 8 10 11
10 2 0 4 -4 4 -10z m-20 -35 c-7 -9 -15 -13 -19 -10 -3 3 1 10 9 15 21 14 24
12 10 -5z m119 -60 c7 -25 18 -45 23 -45 6 0 8 -14 3 -37 -9 -49 -13 -55 -29
-41 -11 11 -11 15 1 23 18 14 3 59 -35 98 -21 22 -22 27 -9 27 9 0 17 5 17 10
0 26 17 5 29 -35z m-125 -24 c-5 -6 -33 31 -33 44 -1 6 8 -1 19 -15 10 -14 17
-27 14 -29z m-144 4 c0 -2 -7 -5 -15 -9 -9 -3 -15 0 -15 9 0 9 6 12 15 9 8 -4
15 -7 15 -9z m120 -45 c12 -8 11 -10 -7 -10 -13 0 -23 5 -23 10 0 13 11 13 30
0z m49 -76 c-6 -8 -19 -13 -28 -13 -13 1 -13 2 2 6 9 2 17 11 17 19 0 8 5 12
10 9 8 -5 7 -11 -1 -21z m61 -4 c0 -5 -2 -10 -4 -10 -3 0 -8 5 -11 10 -3 6 -1
10 4 10 6 0 11 -4 11 -10z m95 -20 c0 -24 -30 -24 -32 0 -1 15 3 20 15 18 9
-2 17 -10 17 -18z m-195 -161 c0 -6 -4 -7 -10 -4 -5 3 -10 11 -10 16 0 6 5 7
10 4 6 -3 10 -11 10 -16z"/>
<path d="M1995 2100 c3 -5 8 -10 11 -10 2 0 4 5 4 10 0 6 -5 10 -11 10 -5 0
-7 -4 -4 -10z"/>
<path d="M1445 1977 c10 -15 20 -25 23 -22 3 3 -5 16 -17 28 l-23 22 17 -28z"/>
<path d="M1565 1954 c-9 -14 -14 -32 -11 -40 3 -8 2 -12 -4 -9 -16 10 -28 -28
-15 -52 6 -13 15 -20 19 -16 4 4 4 0 0 -10 -4 -10 -1 -19 8 -22 8 -3 15 -11
15 -18 0 -18 52 -97 64 -97 5 0 8 -3 5 -8 -7 -12 38 -77 56 -80 12 -2 16 2 12
13 -5 11 1 15 20 15 28 0 33 9 14 28 -10 10 -8 14 10 19 l22 5 -21 19 c-24 21
-44 16 -34 -8 15 -40 -27 14 -55 70 -31 62 -37 87 -21 87 5 0 6 15 2 33 -11
45 -11 46 -12 55 0 4 -4 -2 -9 -13 -8 -19 -9 -19 -9 3 -1 15 -8 26 -21 29 -11
3 -17 9 -14 14 13 22 -5 6 -21 -17z m105 -244 c0 -6 -9 -2 -20 7 -11 10 -20
19 -20 21 0 1 9 -2 20 -8 11 -6 20 -15 20 -20z"/>
<path d="M1537 1762 c-3 -4 3 -17 13 -29 21 -27 36 -8 15 20 -13 19 -21 21
-28 9z"/>
<path d="M2247 1764 c-3 -4 -2 -15 4 -26 6 -11 9 -28 6 -39 -5 -18 36 -53 73
-61 8 -2 17 -6 20 -9 8 -11 107 -38 126 -35 29 4 27 23 -5 42 -16 10 -28 21
-26 24 2 4 -1 15 -8 25 -12 15 -15 16 -29 2 -10 -10 -20 -12 -29 -6 -12 7 -12
9 0 9 11 0 9 4 -5 15 -10 8 -15 15 -9 15 21 0 -32 28 -60 31 -17 2 -35 7 -41
11 -6 4 -14 5 -17 2z"/>
<path d="M3124 1739 c-10 -16 5 -59 41 -119 19 -30 41 -80 50 -110 22 -77 31
-90 39 -53 8 36 -8 82 -37 106 -15 13 -17 17 -5 14 15 -5 15 -1 -2 49 -32 91
-69 140 -86 113z"/>
<path d="M3044 1708 c-33 -18 -69 -40 -80 -48 -28 -22 -45 -76 -34 -106 9 -23
13 -24 77 -20 38 3 58 3 46 0 -29 -7 -29 -22 1 -53 18 -19 23 -33 19 -52 -8
-41 -52 -46 -120 -14 -47 23 -52 28 -43 45 15 28 12 42 -7 38 -24 -5 -18 -45
10 -75 l20 -23 -44 1 c-24 1 -34 4 -22 6 20 4 21 7 11 36 -6 18 -12 33 -13 35
-1 2 -20 -7 -41 -18 -28 -16 -32 -16 -15 -3 50 37 60 49 67 77 5 21 4 27 -5
22 -6 -4 -11 -3 -11 2 0 6 7 12 15 16 8 3 15 15 15 26 0 19 -4 20 -44 15 -33
-5 -54 -1 -83 14 l-39 19 0 -76 c1 -42 6 -81 11 -85 6 -5 3 -7 -7 -3 -12 3
-18 0 -18 -9 0 -8 12 -18 28 -21 15 -4 34 -12 42 -19 8 -6 23 -15 33 -18 10
-4 16 -11 13 -15 -3 -5 41 -20 98 -35 108 -27 153 -51 236 -126 35 -32 50 -40
70 -35 34 8 34 7 12 51 -10 21 -22 51 -26 66 -6 24 -11 28 -34 25 -22 -2 -28
2 -30 20 -2 15 2 22 12 22 9 0 16 7 16 15 0 18 -16 20 -23 3 -4 -10 -6 -10 -6
0 -1 7 -5 11 -10 8 -5 -3 -11 1 -14 9 -4 9 -1 12 9 8 9 -3 14 1 14 14 0 33
-20 81 -36 87 -9 3 -12 11 -8 18 5 8 2 9 -11 4 -15 -5 -16 -4 -6 8 10 11 9 21
-2 43 -26 51 -28 79 -2 31 14 -27 38 -54 55 -63 24 -12 28 -19 21 -33 -9 -17
4 -70 15 -59 3 3 1 16 -6 29 -11 22 -10 22 4 4 9 -11 16 -30 16 -43 0 -36 0
-37 14 -58 7 -11 17 -35 20 -53 5 -19 14 -32 23 -32 10 0 13 5 8 18 -4 9 -10
25 -12 35 -3 9 -9 17 -13 17 -4 0 -7 6 -7 13 2 23 -34 126 -70 199 -20 40 -39
86 -42 101 l-6 28 -61 -33z m75 -254 c-16 -20 -21 -12 -13 21 6 23 8 25 16 11
6 -11 6 -22 -3 -32z"/>
<path d="M2476 1691 c-4 -6 -3 -11 2 -11 5 0 20 -9 33 -21 l24 -21 3 22 c4 26
4 27 -29 35 -16 4 -30 2 -33 -4z"/>
<path d="M2229 1666 c-15 -14 -126 -76 -134 -75 -3 0 -42 -12 -86 -26 l-81
-27 34 -36 c18 -19 41 -43 51 -54 9 -10 17 -16 17 -13 0 2 18 -15 41 -40 27
-29 56 -49 87 -59 60 -19 228 -40 243 -30 8 4 9 3 5 -4 -4 -7 -22 -12 -41 -12
-50 0 -51 -16 -3 -33 203 -73 230 -74 242 -15 3 15 11 28 17 28 8 0 8 -4 -1
-15 -7 -8 -9 -15 -5 -15 4 0 0 -12 -10 -26 -20 -31 -14 -38 40 -53 39 -11 41
-10 68 21 24 27 67 107 67 124 0 2 -7 4 -16 4 -26 0 -13 43 15 50 23 5 22 7
-17 33 -24 15 -44 22 -47 17 -3 -6 -13 -10 -22 -10 -12 0 -14 7 -10 28 5 23 0
31 -26 47 -43 26 -51 29 -44 17 11 -16 -44 -33 -101 -31 -28 1 -52 5 -52 10 0
14 32 19 86 13 45 -6 54 -4 54 9 0 23 -85 61 -121 53 -22 -4 -29 -2 -29 9 0
14 -17 20 -47 16 -7 -1 -13 2 -13 8 0 5 -15 14 -34 21 -18 6 -51 26 -73 45
-33 28 -42 32 -54 21z m-89 -86 c0 -5 -2 -10 -4 -10 -3 0 -8 5 -11 10 -3 6 -1
10 4 10 6 0 11 -4 11 -10z m60 -51 c0 -6 -4 -7 -10 -4 -5 3 -10 11 -10 16 0 6
5 7 10 4 6 -3 10 -11 10 -16z m234 -45 c7 -19 -10 -44 -30 -44 -7 0 -11 7 -9
15 3 8 7 22 10 30 6 20 21 19 29 -1z m-144 -19 c47 -4 55 -9 45 -24 -9 -16
-32 -13 -62 6 -24 16 -26 16 -40 -3 -12 -16 -15 -17 -23 -4 -6 9 -5 17 3 22 7
4 8 8 4 8 -5 0 -5 5 -2 10 5 8 11 8 20 0 7 -6 32 -12 55 -15z m325 -24 c-3 -5
4 -12 15 -16 11 -3 20 -11 20 -16 0 -6 4 -8 10 -4 10 6 7 -61 -3 -71 -8 -9
-47 6 -47 17 0 6 5 7 10 4 6 -3 10 -2 10 4 0 5 -4 12 -9 15 -5 3 -12 18 -16
33 -3 15 -12 31 -18 35 -7 5 -3 8 11 8 13 0 21 -4 17 -9z m-459 -29 c-3 -3 -1
-11 5 -19 19 -22 0 -15 -28 11 l-25 24 26 -5 c15 -3 24 -8 22 -11z m394 -21
c0 -6 -4 -13 -10 -16 -5 -3 -10 1 -10 9 0 9 5 16 10 16 6 0 10 -4 10 -9z m80
-101 c0 -5 -2 -10 -4 -10 -3 0 -8 5 -11 10 -3 6 -1 10 4 10 6 0 11 -4 11 -10z"/>
<path d="M2560 1661 c0 -10 7 -21 15 -25 8 -3 15 -10 15 -16 0 -5 -7 -10 -15
-10 -8 0 -15 -4 -15 -9 0 -5 -3 -16 -6 -25 -4 -10 -1 -16 9 -16 9 0 33 -16 54
-35 27 -25 44 -33 58 -29 29 10 33 20 31 87 l-1 62 -37 6 c-35 5 -38 4 -38
-17 0 -17 -4 -22 -15 -18 -11 5 -12 11 -4 25 8 16 5 21 -16 29 -35 13 -35 13
-35 -9z"/>
<path d="M2907 1610 c-3 -11 -3 -20 -1 -20 2 0 8 9 14 20 6 11 7 20 2 20 -6 0
-12 -9 -15 -20z"/>
<path d="M2895 1549 c-4 -11 -4 -23 -2 -26 9 -8 27 7 27 22 0 23 -18 27 -25 4z"/>
<path d="M3014 1455 c-7 -18 3 -35 22 -35 15 0 17 9 8 34 -8 20 -23 21 -30 1z"/>
<path d="M3255 1430 c-3 -11 -1 -36 7 -56 9 -26 17 -34 31 -30 11 3 16 0 14
-7 -3 -7 -10 -11 -17 -9 -8 2 -10 -5 -6 -20 3 -13 8 -34 11 -48 5 -22 4 -21
-9 5 -8 17 -15 23 -16 15 0 -12 -4 -10 -16 5 -16 19 -16 19 -9 -5 4 -14 12
-29 18 -35 7 -7 8 -5 3 5 -4 8 1 6 11 -5 10 -11 23 -21 28 -22 6 -1 17 -4 26
-8 13 -5 15 0 11 27 -2 18 -9 38 -14 45 -5 7 -6 18 -2 24 4 7 3 9 -2 6 -6 -3
-10 9 -11 26 -1 39 -28 107 -42 107 -5 0 -13 -9 -16 -20z"/>
<path d="M2782 1249 c-19 -48 -21 -63 -12 -75 8 -9 9 -14 2 -14 -6 0 -12 5
-14 12 -2 6 -10 8 -17 4 -10 -6 -9 -12 3 -24 8 -10 14 -21 13 -27 -1 -5 11
-11 27 -13 18 -2 26 0 21 7 -3 6 -1 11 5 11 6 0 8 6 5 13 -4 6 0 4 8 -6 14
-17 16 -17 31 4 14 20 12 52 -3 33 -11 -16 -48 -15 -62 3 -12 15 -12 16 2 11
11 -4 25 3 39 19 21 24 24 25 35 10 17 -24 22 -22 45 21 l21 37 -5 -32 c-4
-22 -1 -33 6 -33 7 0 2 -7 -10 -16 -12 -8 -22 -20 -22 -26 0 -6 -6 -19 -14
-27 -13 -14 -12 -17 10 -28 13 -6 24 -7 24 -2 0 5 5 9 11 9 8 0 8 -4 0 -14
-14 -17 6 -69 23 -59 6 4 5 0 -2 -9 -11 -14 -10 -17 7 -23 10 -3 36 -19 56
-35 35 -28 104 -43 90 -21 -3 6 4 15 15 21 13 7 20 21 21 43 1 31 1 31 10 7
l8 -25 -2 25 c-1 14 -8 26 -14 26 -7 1 -16 3 -20 4 -5 1 -11 2 -15 1 -5 0 -8
3 -8 8 0 5 -10 7 -22 5 -13 -2 -16 -1 -8 2 8 4 18 11 21 17 4 6 18 4 37 -5 29
-15 30 -15 23 11 -6 19 -15 27 -37 29 -16 2 -33 8 -39 14 -7 7 -2 9 15 5 l25
-6 -25 19 c-14 10 -33 21 -43 24 -21 5 -58 -31 -50 -50 3 -8 0 -14 -7 -14 -6
0 -8 5 -5 10 3 6 -1 13 -10 16 -14 6 -14 9 -3 16 10 8 10 11 0 15 -6 2 -9 9
-6 15 4 6 13 1 21 -13 l13 -24 -6 28 c-5 23 -4 26 12 21 41 -15 -71 71 -120
91 -65 27 -78 22 -104 -46z m98 34 c7 7 5 0 -5 -15 -9 -16 -19 -28 -22 -28 -2
0 -2 4 1 9 3 5 -1 14 -9 21 -8 7 -12 17 -8 23 4 6 10 4 18 -6 9 -13 14 -14 25
-4z m60 -103 c0 -5 -4 -10 -10 -10 -5 0 -10 5 -10 10 0 6 5 10 10 10 6 0 10
-4 10 -10z m140 -60 c0 -12 -8 -12 -35 0 -18 8 -17 9 8 9 15 1 27 -3 27 -9z
m-96 -56 c9 -24 7 -28 -9 -14 -17 14 -20 30 -6 30 5 0 12 -7 15 -16z m48 -2
c3 -11 0 -19 -7 -19 -7 0 -10 8 -7 19 2 10 6 18 7 18 1 0 5 -8 7 -18z m63 -62
c3 -6 -1 -7 -9 -4 -18 7 -21 14 -7 14 6 0 13 -4 16 -10z"/>
<path d="M3316 1201 c-2 -3 8 -18 23 -33 l27 -27 2 28 c2 23 -2 30 -23 33 -14
3 -27 3 -29 -1z"/>
<path d="M3226 1190 c-16 -5 -39 -19 -52 -31 -23 -22 -23 -23 -5 -36 11 -7 18
-21 16 -30 -2 -10 -4 -47 -4 -83 -1 -65 -1 -66 -33 -75 -38 -12 -50 -35 -15
-31 13 1 33 12 44 23 14 14 29 19 47 16 23 -5 26 -2 27 23 1 29 1 29 9 -4 4
-18 15 -41 23 -50 9 -10 23 -44 31 -77 9 -32 20 -61 25 -65 6 -3 6 -22 0 -50
-6 -24 -7 -56 -3 -70 7 -23 10 -52 15 -122 2 -21 8 -27 31 -30 41 -6 56 9 73
72 19 71 19 128 0 174 -9 20 -13 41 -10 46 3 5 -8 30 -25 56 -25 40 -30 58
-30 108 0 120 -60 247 -114 245 -12 0 -34 -5 -50 -9z m4 -90 c0 -23 0 -23 34
-10 20 7 24 6 20 -5 -3 -7 -12 -16 -20 -19 -10 -4 -12 -14 -9 -29 5 -18 2 -26
-11 -31 -9 -4 -19 -4 -22 -2 -8 9 -9 116 0 116 4 0 8 -9 8 -20z m124 -83 c5
-21 4 -27 -5 -21 -8 4 -9 3 -5 -4 4 -7 3 -27 -3 -46 -6 -25 -5 -46 4 -73 21
-60 22 -88 5 -88 -8 0 -15 9 -15 20 0 11 -3 25 -6 30 -8 14 -4 143 6 183 9 37
10 37 19 -1z"/>
<path d="M2857 1103 c-13 -12 -7 -21 28 -42 34 -20 35 -20 35 -1 0 33 -44 63
-63 43z"/>
<path d="M3404 1017 c3 -29 6 -70 7 -92 1 -35 2 -33 14 25 16 83 14 113 -10
116 -16 2 -17 -3 -11 -49z"/>
<path d="M3116 958 c2 -4 -4 -11 -13 -17 -28 -16 -5 -13 27 4 36 19 38 25 6
23 -14 -1 -23 -6 -20 -10z"/>
<path d="M3282 775 c0 -16 2 -22 5 -12 2 9 2 23 0 30 -3 6 -5 -1 -5 -18z"/>
<path d="M3291 684 c0 -11 3 -14 6 -6 3 7 2 16 -1 19 -3 4 -6 -2 -5 -13z"/>
<path d="M3476 599 c-8 -42 0 -50 9 -9 4 17 5 34 2 36 -2 3 -7 -10 -11 -27z"/>
</g>
</svg>
